#N canvas 0 32 1920 1048 10;
#X obj 109 49 midirealtimein;
#X obj 136 196 bng 15 250 50 0 empty empty empty 17 7 0 10 -262144
-1 -1;
#X obj 109 133 sel 248 250 251 252;
#X floatatom 109 94 5 0 0 0 - - -;
#X obj 164 196 bng 15 250 50 0 empty empty empty 17 7 0 10 -262144
-1 -1;
#X obj 192 196 bng 15 250 50 0 empty empty empty 17 7 0 10 -262144
-1 -1;
#X obj 220 196 bng 15 250 50 0 empty empty empty 17 7 0 10 -262144
-1 -1;
#X obj 109 281 float;
#X obj 173 279 + 1;
#X floatatom 128 326 5 0 0 0 - - -;
#X msg 121 227 0, f 4;
#X obj 109 558 bng 15 250 50 0 empty empty empty 17 7 0 10 -262144
-1 -1;
#X obj 109 517 sel 0;
#X msg 409 388 6;
#X msg 330 388 12;
#X msg 371 388 8;
#X msg 486 388 4;
#X msg 448 388 5;
#X obj 360 735 bng 15 250 50 0 empty empty empty 17 7 0 10 -262144
-1 -1;
#X obj 138 558 spigot;
#X obj 171 517 tgl 15 0 empty empty empty 17 7 0 10 -262144 -1 -1 0
1;
#X msg 266 388 24;
#X obj 326 780 ctlout 114;
#X floatatom 383 745 5 1 16 0 - - -;
#X msg 564 388 2;
#X msg 230 388 48;
#X floatatom 861 712 5 1 16 0 - - -;
#X obj 810 747 ctlout 80;
#X floatatom 599 720 5 1 16 0 - - -;
#X obj 548 754 ctlout 85;
#X obj 138 591 s tap_tempo;
#X obj 326 682 r tap_tempo;
#X msg 326 735 127;
#X obj 109 465 mod 24;
#X obj 671 159 ctlin 69;
#X obj 671 233 s midi_channel;
#X obj 383 715 r midi_channel;
#X obj 861 676 r midi_channel;
#X obj 599 691 r midi_channel;
#X floatatom 671 198 5 1 16 0 - - -;
#X text 524 661 Filter Bright/Dark;
#X text 801 637 Toggle Pedal ON/OFF;
#X text 338 645 Tap tempo;
#X text 268 366 x1;
#X text 330 369 x2;
#X text 374 368 x3;
#X text 413 367 x4;
#X text 489 366 x6;
#X text 567 367 x12;
#X text 233 366 /2;
#X text 171 365 /4;
#X msg 198 388 64;
#X text 202 365 /3;
#X msg 167 388 96;
#X text 528 367 x8;
#X msg 525 388 3;
#X obj 341 112 ctlin 2;
#X obj 1136 228 s toggle_pedal;
#X obj 755 675 r toggle_pedal;
#X obj 1005 232 s toggle_filter;
#X obj 501 693 r toggle_filter;
#X obj 1005 196 ctlin 68;
#X obj 1136 191 ctlin 67;
#X obj 189 477 r toggle_taptempo;
#X obj 881 232 s toggle_taptempo;
#X obj 881 194 ctlin 66;
#X obj 341 232 route 0 1 2 3 4 5 6 7 8 9 10;
#X obj 341 171 int;
#X obj 341 144 / 11;
#X obj 341 200 change;
#X connect 0 0 3 0;
#X connect 2 0 7 0;
#X connect 2 1 1 0;
#X connect 2 1 10 0;
#X connect 2 2 4 0;
#X connect 2 3 5 0;
#X connect 2 4 6 0;
#X connect 3 0 2 0;
#X connect 7 0 8 0;
#X connect 7 0 9 0;
#X connect 7 0 33 0;
#X connect 8 0 7 1;
#X connect 10 0 7 0;
#X connect 12 0 11 0;
#X connect 12 0 19 0;
#X connect 13 0 33 1;
#X connect 14 0 33 1;
#X connect 15 0 33 1;
#X connect 16 0 33 1;
#X connect 17 0 33 1;
#X connect 19 0 30 0;
#X connect 20 0 19 1;
#X connect 21 0 33 1;
#X connect 23 0 22 2;
#X connect 24 0 33 1;
#X connect 25 0 33 1;
#X connect 26 0 27 2;
#X connect 28 0 29 2;
#X connect 31 0 18 0;
#X connect 31 0 32 0;
#X connect 32 0 22 0;
#X connect 33 0 12 0;
#X connect 34 0 39 0;
#X connect 36 0 23 0;
#X connect 37 0 26 0;
#X connect 38 0 28 0;
#X connect 39 0 35 0;
#X connect 51 0 33 1;
#X connect 53 0 33 1;
#X connect 55 0 33 1;
#X connect 56 0 68 0;
#X connect 58 0 27 0;
#X connect 60 0 29 0;
#X connect 61 0 59 0;
#X connect 62 0 57 0;
#X connect 63 0 20 0;
#X connect 65 0 64 0;
#X connect 66 0 53 0;
#X connect 66 1 51 0;
#X connect 66 2 25 0;
#X connect 66 3 21 0;
#X connect 66 4 14 0;
#X connect 66 5 15 0;
#X connect 66 6 13 0;
#X connect 66 7 17 0;
#X connect 66 8 16 0;
#X connect 66 9 55 0;
#X connect 66 10 24 0;
#X connect 67 0 69 0;
#X connect 68 0 67 0;
#X connect 69 0 66 0;
